<svg width="24" height="24" viewBox="0 0 24 24" fill="none" xmlns="http://www.w3.org/2000/svg">
<g transform="translate(0.9198000000000004 3)">
<rect id="Rectangle 22" x="0.35" y="0.35" width="21.4604" height="17.3" rx="1.65" fill="currentColor" fill-opacity="0.2" stroke="currentColor" stroke-width="0.7"/>
<g id="&#226;&#128;&#168;&#226;&#128;&#168;&#226;&#128;&#168;&#226;&#128;&#168;&#226;&#128;&#168;&#226;&#128;&#168;&#226;&#128;&#168;&#226;&#128;&#168;&#226;&#128;&#168;XX">
<path d="M2.56646 12.8955V12.7066L3.45402 12.2699L6.0316 9.0118L3.51481 5.70653L2.74883 5.29336V5.10449H5.78843V5.29336L4.81576 5.73013V5.78916L6.76111 8.27992L8.7794 5.77735V5.73013L7.85536 5.29336V5.10449H10.4086V5.29336L9.64265 5.73013L7.17449 8.81113L9.8615 12.2463L10.7126 12.7066V12.8955H7.61219V12.7066L8.49976 12.2817V12.2345L6.43283 9.53121L4.31727 12.2345V12.2817L5.3021 12.7066V12.8955H2.56646Z" fill="currentColor"/>
<path d="M11.4478 12.8955V12.7066L12.3354 12.2699L14.9129 9.0118L12.3961 5.70653L11.6302 5.29336V5.10449H14.6698V5.29336L13.6971 5.73013V5.78916L15.6424 8.27992L17.6607 5.77735V5.73013L16.7367 5.29336V5.10449H19.29V5.29336L18.524 5.73013L16.0558 8.81113L18.7428 12.2463L19.5939 12.7066V12.8955H16.4935V12.7066L17.3811 12.2817V12.2345L15.3142 9.53121L13.1986 12.2345V12.2817L14.1834 12.7066V12.8955H11.4478Z" fill="currentColor"/>
</g>
</g>
</svg>
