<svg width="24" height="24" viewBox="0 0 24 24" fill="none" xmlns="http://www.w3.org/2000/svg">
<g transform="translate(0 3)">
<rect id="Rectangle 22" x="0.35" y="0.35" width="23.3" height="17.3" rx="1.65" fill="currentColor" fill-opacity="0.2" stroke="currentColor" stroke-width="0.7"/>
<g id="XVII">
<path d="M2.54259 12.9399V12.7474L3.14358 12.3023L4.88891 8.98202L3.18474 5.6136L2.66608 5.19254V5.00006H4.72426V5.19254L4.06564 5.63766V5.69781L5.38287 8.23615L6.85835 5.68578V5.63766L6.21504 5.19254V5.00006H7.9926V5.19254L7.45933 5.63766L5.74103 8.77751L7.6117 12.2783L8.20422 12.7474V12.9399H6.04575V12.7474L6.66367 12.3143V12.2662L5.16059 9.51134L3.7281 12.2662V12.3143L4.39495 12.7474V12.9399H2.54259Z" fill="currentColor"/>
<path d="M11.3581 13.0001L9.17679 5.6136L8.86575 5.19254V5.00005L10.4187 5.00006V5.19254L9.99913 5.63766V5.69781L11.6178 11.2076H11.6611L13.6204 5.64969V5.60157L13.2556 5.19254V5.00006H14.6475V5.19254L14.3683 5.55345L11.6611 13.0001H11.3581Z" fill="currentColor"/>
<path d="M15.3025 12.9398V12.7474L15.701 12.2662V5.67368L15.3025 5.19248V5H17.0438V5.19248L16.649 5.67368V12.2662L17.0438 12.7474V12.9398H15.3025Z" fill="currentColor"/>
<path d="M17.5599 12.9399V12.7474L17.9799 12.2662V5.67376L17.5599 5.19255V5.00007H19.2168V5.19255L18.928 5.67376V12.2662L19.3053 12.7474V12.9399H17.5599Z" fill="currentColor"/>
<path d="M19.712 12.9399V12.7474L20.132 12.2662V5.67376L19.712 5.19255V5.00007H21.3689V5.19255L21.0801 5.67376V12.2662L21.4574 12.7474V12.9399H19.712Z" fill="currentColor"/>
</g>
</g>
</svg>
