<svg width="24" height="24" viewBox="0 0 24 24" fill="none" xmlns="http://www.w3.org/2000/svg">
<rect x="0.919922" y="3" width="22.1604" height="18" rx="2" fill="white" fill-opacity="0.2"/>
<rect x="1.26992" y="3.35" width="21.4604" height="17.3" rx="1.65" stroke="white" stroke-opacity="0.24" stroke-width="0.7"/>
<path d="M2.99023 16.281V16.0718L3.74363 15.5882L5.93157 11.9805L3.79523 8.32045L3.14504 7.86295V7.65381H5.72516V7.86295L4.89952 8.34659V8.41195L6.5508 11.17L8.264 8.39888V8.34659L7.47965 7.86295V7.65381H9.64695V7.86295L8.99676 8.34659L6.9017 11.7582L9.18253 15.562L9.90496 16.0718V16.281H7.27324V16.0718L8.02663 15.6012V15.549L6.27215 12.5556L4.47638 15.549V15.6012L5.31234 16.0718V16.281H2.99023Z" fill="white"/>
<path d="M13.7411 16.3463L11.1404 8.32045L10.4282 7.86295V7.65381H13.0084V7.86295L12.1208 8.34659V8.41195L14.0507 14.3987H14.1023L16.0219 8.35967V8.30738L15.1757 7.86295V7.65381H17.343V7.86295L16.7547 8.25509L14.1023 16.3463H13.7411Z" fill="white"/>
<path d="M18.429 16.281V16.0718L19.2547 15.549V8.38581L18.429 7.86295V7.65381H21.0092V7.86295L20.1835 8.38581V15.549L21.0092 16.0718V16.281H18.429Z" fill="white"/>
<path d="M13.1445 7.51807V7.94385L13.0732 7.98291L12.2666 8.42139L14.0752 14.0317L15.8721 8.38232L15.1123 7.98389L15.0391 7.94482V7.51807H17.4795V7.93604L17.4189 7.97607L16.8682 8.34229L14.2314 16.3892L14.2012 16.4829H13.6426L13.6113 16.3882L11.0254 8.40869L10.3545 7.97705L10.292 7.93701V7.51807H13.1445ZM10.041 16.4175H7.13672V15.9966L7.20117 15.9565L7.86426 15.5415L6.26953 12.8218L4.64062 15.5376L5.37891 15.9536L5.44824 15.9927V16.4175H2.85449V15.9976L2.91699 15.9575L3.64258 15.4897L5.77246 11.978L3.69238 8.41455L3.06641 7.97412L3.00879 7.93408V7.51807H5.86133V7.94092L5.79395 7.97998L5.05762 8.41162L6.55176 10.9067L8.09961 8.40479L7.4082 7.979L7.34375 7.93896V7.51807H9.7832V7.93115L9.72852 7.97217L9.09766 8.43994L7.06055 11.7583L9.2832 15.4663L9.9834 15.9604L10.041 16.0015V16.4175ZM21.1455 16.4175H18.293V15.9966L18.3564 15.9565L19.1182 15.4741V8.45947L18.3564 7.97803L18.293 7.93799V7.51807H21.1455V7.93799L21.082 7.97803L20.3193 8.46045V15.4731L21.082 15.9565L21.1455 15.9966V16.4175Z" stroke="white" stroke-opacity="0.24" stroke-width="0.272321"/>
</svg>
