<svg width="16" height="16" viewBox="0 0 16 16" fill="none" xmlns="http://www.w3.org/2000/svg">
<path fill-rule="evenodd" clip-rule="evenodd" d="M10.0202 2.97977C10.2155 3.17504 10.2155 3.49162 10.0202 3.68688L5.70711 7.99999L10.0202 12.3131C10.2155 12.5084 10.2155 12.825 10.0202 13.0202C9.82496 13.2155 9.50838 13.2155 9.31311 13.0202L4.64645 8.35355C4.45118 8.15829 4.45118 7.8417 4.64645 7.64644L9.31311 2.97977C9.50838 2.78451 9.82496 2.78451 10.0202 2.97977Z" fill="black"/>
<path fill-rule="evenodd" clip-rule="evenodd" d="M10.0202 2.97977C10.2155 3.17504 10.2155 3.49162 10.0202 3.68688L5.70711 7.99999L10.0202 12.3131C10.2155 12.5084 10.2155 12.825 10.0202 13.0202C9.82496 13.2155 9.50838 13.2155 9.31311 13.0202L4.64645 8.35355C4.45118 8.15829 4.45118 7.8417 4.64645 7.64644L9.31311 2.97977C9.50838 2.78451 9.82496 2.78451 10.0202 2.97977Z" fill="#9A8A75"/>
</svg>
